<?xml version="1.0" encoding="UTF-8" standalone="no"?>
<!DOCTYPE svg PUBLIC "-//W3C//DTD SVG 1.1//EN" "http://www.w3.org/Graphics/SVG/1.1/DTD/svg11.dtd">
<svg xmlns="http://www.w3.org/2000/svg" version="1.1" viewBox="0.00 0.00 512.00 512.00" width="512.00" height="512.00">
<g stroke-width="2.00" fill="none" stroke-linecap="butt">
<path stroke="#89977b" vector-effect="non-scaling-stroke" d="
  M 138.40 400.76
  Q 139.48 393.24 146.74 393.24
  Q 200.74 393.27 254.76 393.25
  Q 255.88 393.25 256.76 392.56
  Q 261.72 388.70 266.33 384.41
  Q 295.13 357.61 313.05 320.50
  Q 314.12 318.27 315.56 317.09
  C 319.96 313.44 326.46 316.00 327.56 321.54
  Q 328.07 324.12 326.56 327.18
  Q 313.75 353.30 296.24 374.53
  A 0.23 0.22 -70.2 0 0 296.41 374.90
  Q 303.81 374.94 311.40 374.00
  Q 314.89 373.57 317.08 374.43
  C 324.21 377.23 322.86 387.93 315.00 388.78
  Q 297.21 390.69 283.89 389.49
  A 2.46 2.46 0.0 0 0 281.90 390.22
  Q 267.11 405.30 248.75 416.24
  Q 248.18 416.58 248.84 416.65
  Q 262.72 418.12 275.68 416.80
  C 279.98 416.36 284.48 413.82 288.36 417.23
  C 291.63 420.10 291.87 424.97 288.87 428.06
  C 286.05 430.97 278.54 431.64 274.72 431.95
  C 258.71 433.23 241.31 431.38 224.78 428.72
  Q 222.83 428.40 220.81 429.04
  C 202.01 434.97 183.22 436.89 163.27 434.60
  A 1.15 1.15 0.0 0 0 162.01 435.51
  L 159.50 448.00
  Q 159.24 449.28 160.54 449.42
  Q 197.58 453.34 235.67 454.33
  Q 270.87 455.24 304.00 452.23
  Q 309.66 451.71 314.17 450.71"
/>
<path stroke="#6e787b" vector-effect="non-scaling-stroke" d="
  M 314.17 450.71
  Q 323.56 450.11 328.75 448.48
  Q 355.31 440.09 363.09 414.29
  Q 375.87 371.96 388.76 329.49"
/>
<path stroke="#89977b" vector-effect="non-scaling-stroke" d="
  M 388.76 329.49
  C 389.84 323.43 395.18 319.67 400.77 323.12
  C 405.25 325.89 404.22 330.30 402.79 334.97
  Q 395.09 359.98 387.34 386.30"
/>
<path stroke="#6e787b" vector-effect="non-scaling-stroke" d="
  M 387.34 386.30
  L 386.20 389.91
  Q 386.09 390.26 386.45 390.18
  Q 401.52 386.95 415.26 380.09
  C 440.52 367.48 455.46 346.36 461.10 319.09
  Q 465.08 299.85 464.47 277.68
  Q 463.65 247.75 457.26 214.91
  Q 449.33 174.08 435.75 132.79
  Q 435.54 132.12 435.18 132.73
  C 432.58 137.15 430.42 144.23 424.10 143.92
  C 419.96 143.72 416.75 140.17 417.04 136.06
  Q 417.21 133.81 418.66 131.35
  Q 424.93 120.79 430.34 110.67
  C 432.05 107.46 434.47 106.96 437.34 105.36
  Q 451.65 97.40 463.34 90.90
  Q 469.18 87.66 469.21 80.81
  Q 469.24 75.80 469.24 69.49
  Q 469.24 68.86 468.62 68.86
  L 444.65 68.85"
/>
<path stroke="#89977b" vector-effect="non-scaling-stroke" d="
  M 444.65 68.85
  Q 436.65 68.85 428.50 68.79
  Q 426.16 68.78 424.68 67.86
  Q 419.10 64.43 413.50 61.18"
/>
<path stroke="#6e787b" vector-effect="non-scaling-stroke" d="
  M 413.50 61.18
  C 411.30 59.73 407.38 56.74 404.72 57.66
  Q 402.66 58.36 398.87 60.68"
/>
<path stroke="#89977b" vector-effect="non-scaling-stroke" d="
  M 398.87 60.68
  Q 388.54 65.92 378.09 71.37
  Q 366.09 77.62 361.20 81.94
  Q 345.32 95.97 345.31 118.50
  Q 345.31 157.37 345.36 196.25
  Q 345.36 203.55 337.91 204.55"
/>
<path stroke="#89977b" vector-effect="non-scaling-stroke" d="
  M 466.03 350.60
  Q 456.15 369.69 439.43 382.56
  Q 439.19 382.74 439.49 382.74
  L 477.82 382.76"
/>
<path stroke="#6e787b" vector-effect="non-scaling-stroke" d="
  M 477.82 382.76
  L 494.96 382.73
  A 2.06 2.06 0.0 0 0 497.02 380.62
  Q 496.66 366.59 487.93 356.57
  Q 479.74 347.17 471.95 338.19
  Q 471.61 337.79 471.40 338.27
  L 466.03 350.60"
/>
<path stroke="#aac2a9" vector-effect="non-scaling-stroke" d="
  M 477.82 382.76
  Q 478.46 364.23 466.03 350.60"
/>
<path stroke="#aac2a9" vector-effect="non-scaling-stroke" d="
  M 413.50 61.18
  Q 406.19 61.81 398.87 60.68"
/>
<path stroke="#aac2a9" vector-effect="non-scaling-stroke" d="
  M 444.65 68.85
  Q 444.56 75.32 444.62 81.76
  Q 444.70 89.97 437.50 95.79
  Q 436.21 96.84 430.49 99.99
  Q 424.75 103.16 418.73 111.24"
/>
<path stroke="#89977b" vector-effect="non-scaling-stroke" d="
  M 418.73 111.24
  Q 418.80 103.82 412.70 102.44
  Q 408.37 101.45 405.32 104.74
  Q 394.22 116.70 380.72 131.05
  C 378.65 133.26 377.83 136.14 378.94 139.06
  C 380.48 143.16 385.24 145.18 389.17 143.16
  Q 390.65 142.40 393.21 139.65
  Q 404.86 127.15 417.05 114.34"
/>
<path stroke="#aac2a9" vector-effect="non-scaling-stroke" d="
  M 417.05 114.34
  Q 410.32 128.78 415.03 143.75
  Q 424.81 174.85 432.03 210.90
  C 437.63 238.86 441.10 267.92 439.54 296.47
  C 438.65 312.80 435.61 329.64 428.72 344.27
  Q 415.77 371.78 387.34 386.30"
/>
<path stroke="#aac2a9" vector-effect="non-scaling-stroke" d="
  M 388.76 329.49
  Q 373.20 332.43 365.17 344.50
  Q 362.18 349.00 359.64 357.20
  Q 350.75 385.96 342.55 412.48
  Q 339.27 423.08 335.99 428.81
  Q 328.35 442.17 314.17 450.71"
/>
<path stroke="#89977b" vector-effect="non-scaling-stroke" d="
  M 118.26 400.82
  Q 115.66 392.91 108.74 392.96
  Q 93.87 393.09 79.54 392.99
  A 0.63 0.63 0.0 0 1 78.91 392.34
  Q 79.17 383.04 78.94 373.25
  C 78.64 360.72 80.72 351.22 88.53 342.27
  C 107.00 321.07 127.71 300.93 151.67 287.09
  Q 166.79 278.35 182.68 277.16
  Q 194.89 276.25 206.74 276.43
  C 228.17 276.74 250.47 277.86 272.25 277.43
  C 285.70 277.17 299.52 275.94 312.51 272.53
  C 331.54 267.53 344.05 253.21 345.32 233.67
  C 345.65 228.60 343.07 225.09 337.92 224.58"
/>
<path stroke="#89977b" vector-effect="non-scaling-stroke" d="
  M 413.45 80.95
  A 7.49 7.49 0.0 0 0 405.96 73.46
  A 7.49 7.49 0.0 0 0 398.47 80.95
  A 7.49 7.49 0.0 0 0 405.96 88.44
  A 7.49 7.49 0.0 0 0 413.45 80.95"
/>
<path stroke="#6e787b" vector-effect="non-scaling-stroke" d="
  M 417.05 114.34
  L 418.73 111.24"
/>
<path stroke="#89977b" vector-effect="non-scaling-stroke" d="
  M 47.33 381.00
  Q 31.87 383.90 19.42 393.43
  Q 19.01 393.74 19.53 393.74
  L 47.18 393.50"
/>
<path stroke="#6e787b" vector-effect="non-scaling-stroke" d="
  M 47.18 393.50
  L 63.35 393.30
  Q 63.93 393.29 63.93 392.71
  L 63.93 379.46
  Q 63.93 378.96 63.44 378.97
  Q 55.43 379.12 47.33 381.00"
/>
<path stroke="#aac2a9" vector-effect="non-scaling-stroke" d="
  M 47.18 393.50
  L 47.33 381.00"
/>
<path stroke="#6e787b" vector-effect="non-scaling-stroke" d="
  M 85.19 448.83
  Q 95.09 449.07 97.82 448.65
  C 103.19 447.83 106.74 442.98 107.59 437.55
  C 109.19 427.27 108.88 418.07 105.44 409.06
  A 0.82 0.81 79.5 0 0 104.68 408.53
  L 87.46 408.52"
/>
<path stroke="#89977b" vector-effect="non-scaling-stroke" d="
  M 87.46 408.52
  L 75.36 408.57
  Q 74.85 408.57 74.53 408.98
  L 43.33 448.50
  A 0.20 0.19 -70.7 0 0 43.48 448.82
  L 85.19 448.83"
/>
<path stroke="#aac2a9" vector-effect="non-scaling-stroke" d="
  M 87.46 408.52
  Q 92.64 425.57 88.19 442.99
  Q 87.71 444.87 85.19 448.83"
/>
</g>
<path fill="#4d4d4d" d="
  M 512.00 377.88
  L 512.00 381.76
  C 510.27 392.50 503.24 397.85 492.98 397.82
  Q 452.66 397.73 413.32 397.83
  Q 412.54 397.84 411.73 398.15
  Q 397.21 403.78 381.76 406.37
  Q 381.14 406.48 380.96 407.07
  C 379.16 412.77 377.47 419.51 375.35 424.57
  C 366.52 445.60 348.34 460.89 325.44 464.50
  C 298.80 468.69 270.91 469.97 241.75 469.43
  Q 202.32 468.70 162.53 464.75
  Q 156.62 464.17 154.01 462.98
  C 146.90 459.73 143.26 452.19 144.92 444.57
  Q 145.86 440.22 146.62 435.77
  C 147.89 428.29 151.36 422.13 158.93 420.26
  Q 162.51 419.38 169.61 420.05
  Q 192.75 422.23 214.90 415.15
  Q 223.23 412.48 231.23 408.75
  Q 232.28 408.26 231.12 408.26
  Q 189.87 408.25 148.00 408.26
  Q 139.48 408.26 138.40 400.76
  Q 139.48 393.24 146.74 393.24
  Q 200.74 393.27 254.76 393.25
  Q 255.88 393.25 256.76 392.56
  Q 261.72 388.70 266.33 384.41
  Q 295.13 357.61 313.05 320.50
  Q 314.12 318.27 315.56 317.09
  C 319.96 313.44 326.46 316.00 327.56 321.54
  Q 328.07 324.12 326.56 327.18
  Q 313.75 353.30 296.24 374.53
  A 0.23 0.22 -70.2 0 0 296.41 374.90
  Q 303.81 374.94 311.40 374.00
  Q 314.89 373.57 317.08 374.43
  C 324.21 377.23 322.86 387.93 315.00 388.78
  Q 297.21 390.69 283.89 389.49
  A 2.46 2.46 0.0 0 0 281.90 390.22
  Q 267.11 405.30 248.75 416.24
  Q 248.18 416.58 248.84 416.65
  Q 262.72 418.12 275.68 416.80
  C 279.98 416.36 284.48 413.82 288.36 417.23
  C 291.63 420.10 291.87 424.97 288.87 428.06
  C 286.05 430.97 278.54 431.64 274.72 431.95
  C 258.71 433.23 241.31 431.38 224.78 428.72
  Q 222.83 428.40 220.81 429.04
  C 202.01 434.97 183.22 436.89 163.27 434.60
  A 1.15 1.15 0.0 0 0 162.01 435.51
  L 159.50 448.00
  Q 159.24 449.28 160.54 449.42
  Q 197.58 453.34 235.67 454.33
  Q 270.87 455.24 304.00 452.23
  Q 309.66 451.71 314.17 450.71
  Q 323.56 450.11 328.75 448.48
  Q 355.31 440.09 363.09 414.29
  Q 375.87 371.96 388.76 329.49
  C 389.84 323.43 395.18 319.67 400.77 323.12
  C 405.25 325.89 404.22 330.30 402.79 334.97
  Q 395.09 359.98 387.34 386.30
  L 386.20 389.91
  Q 386.09 390.26 386.45 390.18
  Q 401.52 386.95 415.26 380.09
  C 440.52 367.48 455.46 346.36 461.10 319.09
  Q 465.08 299.85 464.47 277.68
  Q 463.65 247.75 457.26 214.91
  Q 449.33 174.08 435.75 132.79
  Q 435.54 132.12 435.18 132.73
  C 432.58 137.15 430.42 144.23 424.10 143.92
  C 419.96 143.72 416.75 140.17 417.04 136.06
  Q 417.21 133.81 418.66 131.35
  Q 424.93 120.79 430.34 110.67
  C 432.05 107.46 434.47 106.96 437.34 105.36
  Q 451.65 97.40 463.34 90.90
  Q 469.18 87.66 469.21 80.81
  Q 469.24 75.80 469.24 69.49
  Q 469.24 68.86 468.62 68.86
  L 444.65 68.85
  Q 436.65 68.85 428.50 68.79
  Q 426.16 68.78 424.68 67.86
  Q 419.10 64.43 413.50 61.18
  C 411.30 59.73 407.38 56.74 404.72 57.66
  Q 402.66 58.36 398.87 60.68
  Q 388.54 65.92 378.09 71.37
  Q 366.09 77.62 361.20 81.94
  Q 345.32 95.97 345.31 118.50
  Q 345.31 157.37 345.36 196.25
  Q 345.36 203.55 337.91 204.55
  Q 333.18 204.03 331.36 200.60
  Q 330.35 198.70 330.36 193.76
  Q 330.45 155.15 330.36 115.75
  Q 330.34 108.56 333.24 99.34
  Q 341.34 73.54 363.87 61.87
  Q 380.90 53.05 397.49 44.42
  C 404.50 40.77 411.99 42.48 418.94 46.86
  Q 424.30 50.23 430.21 53.66
  Q 430.60 53.88 431.05 53.88
  Q 451.51 53.85 470.87 53.89
  Q 479.19 53.91 482.67 60.39
  Q 484.54 63.87 484.27 70.91
  Q 484.09 75.73 484.18 80.21
  C 484.40 90.58 479.25 99.30 470.10 104.33
  Q 458.81 110.54 446.80 117.25
  A 0.60 0.59 66.1 0 0 446.53 117.96
  Q 464.73 170.11 473.95 222.98
  C 479.50 254.86 481.96 288.02 476.33 319.90
  A 0.93 0.90 -61.5 0 0 476.54 320.65
  Q 487.67 333.44 498.91 346.34
  Q 510.66 359.83 512.00 377.88
  Z
  M 466.03 350.60
  Q 456.15 369.69 439.43 382.56
  Q 439.19 382.74 439.49 382.74
  L 477.82 382.76
  L 494.96 382.73
  A 2.06 2.06 0.0 0 0 497.02 380.62
  Q 496.66 366.59 487.93 356.57
  Q 479.74 347.17 471.95 338.19
  Q 471.61 337.79 471.40 338.27
  L 466.03 350.60
  Z"
/>
<path fill="#8ea3a9" d="
  M 413.50 61.18
  Q 406.19 61.81 398.87 60.68
  Q 402.66 58.36 404.72 57.66
  C 407.38 56.74 411.30 59.73 413.50 61.18
  Z"
/>
<path fill="#c5e0a8" d="
  M 398.87 60.68
  Q 406.19 61.81 413.50 61.18
  Q 419.10 64.43 424.68 67.86
  Q 426.16 68.78 428.50 68.79
  Q 436.65 68.85 444.65 68.85
  Q 444.56 75.32 444.62 81.76
  Q 444.70 89.97 437.50 95.79
  Q 436.21 96.84 430.49 99.99
  Q 424.75 103.16 418.73 111.24
  Q 418.80 103.82 412.70 102.44
  Q 408.37 101.45 405.32 104.74
  Q 394.22 116.70 380.72 131.05
  C 378.65 133.26 377.83 136.14 378.94 139.06
  C 380.48 143.16 385.24 145.18 389.17 143.16
  Q 390.65 142.40 393.21 139.65
  Q 404.86 127.15 417.05 114.34
  Q 410.32 128.78 415.03 143.75
  Q 424.81 174.85 432.03 210.90
  C 437.63 238.86 441.10 267.92 439.54 296.47
  C 438.65 312.80 435.61 329.64 428.72 344.27
  Q 415.77 371.78 387.34 386.30
  Q 395.09 359.98 402.79 334.97
  C 404.22 330.30 405.25 325.89 400.77 323.12
  C 395.18 319.67 389.84 323.43 388.76 329.49
  Q 373.20 332.43 365.17 344.50
  Q 362.18 349.00 359.64 357.20
  Q 350.75 385.96 342.55 412.48
  Q 339.27 423.08 335.99 428.81
  Q 328.35 442.17 314.17 450.71
  Q 309.66 451.71 304.00 452.23
  Q 270.87 455.24 235.67 454.33
  Q 197.58 453.34 160.54 449.42
  Q 159.24 449.28 159.50 448.00
  L 162.01 435.51
  A 1.15 1.15 0.0 0 1 163.27 434.60
  C 183.22 436.89 202.01 434.97 220.81 429.04
  Q 222.83 428.40 224.78 428.72
  C 241.31 431.38 258.71 433.23 274.72 431.95
  C 278.54 431.64 286.05 430.97 288.87 428.06
  C 291.87 424.97 291.63 420.10 288.36 417.23
  C 284.48 413.82 279.98 416.36 275.68 416.80
  Q 262.72 418.12 248.84 416.65
  Q 248.18 416.58 248.75 416.24
  Q 267.11 405.30 281.90 390.22
  A 2.46 2.46 0.0 0 1 283.89 389.49
  Q 297.21 390.69 315.00 388.78
  C 322.86 387.93 324.21 377.23 317.08 374.43
  Q 314.89 373.57 311.40 374.00
  Q 303.81 374.94 296.41 374.90
  A 0.23 0.22 -70.2 0 1 296.24 374.53
  Q 313.75 353.30 326.56 327.18
  Q 328.07 324.12 327.56 321.54
  C 326.46 316.00 319.96 313.44 315.56 317.09
  Q 314.12 318.27 313.05 320.50
  Q 295.13 357.61 266.33 384.41
  Q 261.72 388.70 256.76 392.56
  Q 255.88 393.25 254.76 393.25
  Q 200.74 393.27 146.74 393.24
  Q 139.48 393.24 138.40 400.76
  L 118.26 400.82
  Q 115.66 392.91 108.74 392.96
  Q 93.87 393.09 79.54 392.99
  A 0.63 0.63 0.0 0 1 78.91 392.34
  Q 79.17 383.04 78.94 373.25
  C 78.64 360.72 80.72 351.22 88.53 342.27
  C 107.00 321.07 127.71 300.93 151.67 287.09
  Q 166.79 278.35 182.68 277.16
  Q 194.89 276.25 206.74 276.43
  C 228.17 276.74 250.47 277.86 272.25 277.43
  C 285.70 277.17 299.52 275.94 312.51 272.53
  C 331.54 267.53 344.05 253.21 345.32 233.67
  C 345.65 228.60 343.07 225.09 337.92 224.58
  L 337.91 204.55
  Q 345.36 203.55 345.36 196.25
  Q 345.31 157.37 345.31 118.50
  Q 345.32 95.97 361.20 81.94
  Q 366.09 77.62 378.09 71.37
  Q 388.54 65.92 398.87 60.68
  Z
  M 413.45 80.95
  A 7.49 7.49 0.0 0 0 405.96 73.46
  A 7.49 7.49 0.0 0 0 398.47 80.95
  A 7.49 7.49 0.0 0 0 405.96 88.44
  A 7.49 7.49 0.0 0 0 413.45 80.95
  Z"
/>
<path fill="#8ea3a9" d="
  M 444.65 68.85
  L 468.62 68.86
  Q 469.24 68.86 469.24 69.49
  Q 469.24 75.80 469.21 80.81
  Q 469.18 87.66 463.34 90.90
  Q 451.65 97.40 437.34 105.36
  C 434.47 106.96 432.05 107.46 430.34 110.67
  Q 424.93 120.79 418.66 131.35
  Q 417.21 133.81 417.04 136.06
  C 416.75 140.17 419.96 143.72 424.10 143.92
  C 430.42 144.23 432.58 137.15 435.18 132.73
  Q 435.54 132.12 435.75 132.79
  Q 449.33 174.08 457.26 214.91
  Q 463.65 247.75 464.47 277.68
  Q 465.08 299.85 461.10 319.09
  C 455.46 346.36 440.52 367.48 415.26 380.09
  Q 401.52 386.95 386.45 390.18
  Q 386.09 390.26 386.20 389.91
  L 387.34 386.30
  Q 415.77 371.78 428.72 344.27
  C 435.61 329.64 438.65 312.80 439.54 296.47
  C 441.10 267.92 437.63 238.86 432.03 210.90
  Q 424.81 174.85 415.03 143.75
  Q 410.32 128.78 417.05 114.34
  L 418.73 111.24
  Q 424.75 103.16 430.49 99.99
  Q 436.21 96.84 437.50 95.79
  Q 444.70 89.97 444.62 81.76
  Q 444.56 75.32 444.65 68.85
  Z"
/>
<circle fill="#4d4d4d" cx="405.96" cy="80.95" r="7.49"/>
<path fill="#4d4d4d" d="
  M 418.73 111.24
  L 417.05 114.34
  Q 404.86 127.15 393.21 139.65
  Q 390.65 142.40 389.17 143.16
  C 385.24 145.18 380.48 143.16 378.94 139.06
  C 377.83 136.14 378.65 133.26 380.72 131.05
  Q 394.22 116.70 405.32 104.74
  Q 408.37 101.45 412.70 102.44
  Q 418.80 103.82 418.73 111.24
  Z"
/>
<path fill="#4d4d4d" d="
  M 337.92 224.58
  C 343.07 225.09 345.65 228.60 345.32 233.67
  C 344.05 253.21 331.54 267.53 312.51 272.53
  C 299.52 275.94 285.70 277.17 272.25 277.43
  C 250.47 277.86 228.17 276.74 206.74 276.43
  Q 194.89 276.25 182.68 277.16
  Q 166.79 278.35 151.67 287.09
  C 127.71 300.93 107.00 321.07 88.53 342.27
  C 80.72 351.22 78.64 360.72 78.94 373.25
  Q 79.17 383.04 78.91 392.34
  A 0.63 0.63 0.0 0 0 79.54 392.99
  Q 93.87 393.09 108.74 392.96
  Q 115.66 392.91 118.26 400.82
  Q 125.51 418.17 122.87 436.69
  Q 121.45 446.70 117.98 451.71
  C 112.18 460.13 103.74 463.97 93.72 463.90
  Q 68.18 463.72 41.76 463.91
  Q 37.10 463.95 34.07 462.86
  C 27.78 460.59 24.44 453.25 26.48 447.01
  Q 27.25 444.65 31.31 439.51
  Q 43.19 424.45 55.59 408.80
  Q 55.83 408.50 55.44 408.50
  Q 36.80 408.55 18.83 409.00
  Q 11.01 409.20 7.56 407.68
  Q 1.57 405.05 0.00 397.37
  L 0.00 395.99
  C 0.52 390.21 3.34 386.83 8.07 383.09
  C 24.01 370.48 43.51 364.40 63.48 363.98
  Q 64.17 363.97 64.22 363.28
  C 65.09 350.74 70.41 339.92 79.06 330.25
  C 98.62 308.37 120.20 287.71 145.04 273.60
  Q 164.89 262.32 188.50 261.73
  Q 203.91 261.35 214.52 261.62
  Q 243.91 262.36 262.89 262.56
  C 277.13 262.71 292.74 261.89 306.99 258.47
  C 311.11 257.49 315.50 256.08 318.96 253.59
  Q 329.72 245.85 330.32 232.45
  C 330.52 227.96 333.26 224.99 337.92 224.58
  Z
  M 47.33 381.00
  Q 31.87 383.90 19.42 393.43
  Q 19.01 393.74 19.53 393.74
  L 47.18 393.50
  L 63.35 393.30
  Q 63.93 393.29 63.93 392.71
  L 63.93 379.46
  Q 63.93 378.96 63.44 378.97
  Q 55.43 379.12 47.33 381.00
  Z
  M 85.19 448.83
  Q 95.09 449.07 97.82 448.65
  C 103.19 447.83 106.74 442.98 107.59 437.55
  C 109.19 427.27 108.88 418.07 105.44 409.06
  A 0.82 0.81 79.5 0 0 104.68 408.53
  L 87.46 408.52
  L 75.36 408.57
  Q 74.85 408.57 74.53 408.98
  L 43.33 448.50
  A 0.20 0.19 -70.7 0 0 43.48 448.82
  L 85.19 448.83
  Z"
/>
<path fill="#8ea3a9" d="
  M 388.76 329.49
  Q 375.87 371.96 363.09 414.29
  Q 355.31 440.09 328.75 448.48
  Q 323.56 450.11 314.17 450.71
  Q 328.35 442.17 335.99 428.81
  Q 339.27 423.08 342.55 412.48
  Q 350.75 385.96 359.64 357.20
  Q 362.18 349.00 365.17 344.50
  Q 373.20 332.43 388.76 329.49
  Z"
/>
<path fill="#8ea3a9" d="
  M 477.82 382.76
  Q 478.46 364.23 466.03 350.60
  L 471.40 338.27
  Q 471.61 337.79 471.95 338.19
  Q 479.74 347.17 487.93 356.57
  Q 496.66 366.59 497.02 380.62
  A 2.06 2.06 0.0 0 1 494.96 382.73
  L 477.82 382.76
  Z"
/>
<path fill="#c5e0a8" d="
  M 466.03 350.60
  Q 478.46 364.23 477.82 382.76
  L 439.49 382.74
  Q 439.19 382.74 439.43 382.56
  Q 456.15 369.69 466.03 350.60
  Z"
/>
<path fill="#8ea3a9" d="
  M 47.18 393.50
  L 47.33 381.00
  Q 55.43 379.12 63.44 378.97
  Q 63.93 378.96 63.93 379.46
  L 63.93 392.71
  Q 63.93 393.29 63.35 393.30
  L 47.18 393.50
  Z"
/>
<path fill="#c5e0a8" d="
  M 47.33 381.00
  L 47.18 393.50
  L 19.53 393.74
  Q 19.01 393.74 19.42 393.43
  Q 31.87 383.90 47.33 381.00
  Z"
/>
<path fill="#c5e0a8" d="
  M 87.46 408.52
  Q 92.64 425.57 88.19 442.99
  Q 87.71 444.87 85.19 448.83
  L 43.48 448.82
  A 0.20 0.19 -70.7 0 1 43.33 448.50
  L 74.53 408.98
  Q 74.85 408.57 75.36 408.57
  L 87.46 408.52
  Z"
/>
<path fill="#8ea3a9" d="
  M 87.46 408.52
  L 104.68 408.53
  A 0.82 0.81 79.5 0 1 105.44 409.06
  C 108.88 418.07 109.19 427.27 107.59 437.55
  C 106.74 442.98 103.19 447.83 97.82 448.65
  Q 95.09 449.07 85.19 448.83
  Q 87.71 444.87 88.19 442.99
  Q 92.64 425.57 87.46 408.52
  Z"
/>
</svg>
