<?xml version="1.0" encoding="UTF-8" standalone="no"?>
<svg
   version="1.1"
   viewBox="0.00 0.00 512.00 512.00"
   width="512.00"
   height="512.00"
   id="svg34"
   sodipodi:docname="foca-grey.svg"
   inkscape:version="1.3 (0e150ed6c4, 2023-07-21)"
   xmlns:inkscape="http://www.inkscape.org/namespaces/inkscape"
   xmlns:sodipodi="http://sodipodi.sourceforge.net/DTD/sodipodi-0.dtd"
   xmlns="http://www.w3.org/2000/svg"
   xmlns:svg="http://www.w3.org/2000/svg">
  <defs
     id="defs34">
    <marker
       style="overflow:visible"
       id="ArrowWide"
       refX="0"
       refY="0"
       orient="auto-start-reverse"
       inkscape:stockid="Wide arrow"
       markerWidth="1"
       markerHeight="1"
       viewBox="0 0 1 1"
       inkscape:isstock="true"
       inkscape:collect="always"
       preserveAspectRatio="xMidYMid">
      <path
         style="fill:none;stroke:context-stroke;stroke-width:1;stroke-linecap:butt"
         d="M 3,-3 0,0 3,3"
         transform="rotate(180,0.125,0)"
         sodipodi:nodetypes="ccc"
         id="path36" />
    </marker>
  </defs>
  <sodipodi:namedview
     id="namedview34"
     pagecolor="#ffffff"
     bordercolor="#000000"
     borderopacity="0.25"
     inkscape:showpageshadow="2"
     inkscape:pageopacity="0.0"
     inkscape:pagecheckerboard="0"
     inkscape:deskcolor="#d1d1d1"
     inkscape:zoom="1.6074219"
     inkscape:cx="256"
     inkscape:cy="256.31106"
     inkscape:window-width="1920"
     inkscape:window-height="1002"
     inkscape:window-x="-8"
     inkscape:window-y="-8"
     inkscape:window-maximized="1"
     inkscape:current-layer="svg34" />
  <g
     stroke-width="2.00"
     fill="none"
     stroke-linecap="butt"
     id="g22">
    <path
       stroke="#3f4344"
       vector-effect="non-scaling-stroke"
       d="   M 138.43 400.75   Q 138.97 396.17 142.24 394.32   Q 144.14 393.25 146.42 393.25   Q 200.71 393.23 254.51 393.29   Q 255.74 393.29 256.72 392.55   Q 262.06 388.55 267.32 383.54   Q 296.21 356.03 313.52 319.59   C 315.59 315.24 321.42 314.01 325.07 317.23   C 328.62 320.36 328.09 324.11 326.20 327.94   Q 313.79 353.10 296.27 374.54   A 0.22 0.22 0.0 0 0 296.44 374.90   Q 304.35 374.91 311.67 373.99   Q 315.03 373.57 317.19 374.46   C 322.38 376.59 323.29 383.31 319.14 386.95   Q 317.27 388.60 314.26 388.90   Q 297.72 390.55 283.60 389.56   A 2.14 2.13 24.0 0 0 281.95 390.19   Q 267.13 405.26 248.76 416.25   Q 248.21 416.58 248.85 416.64   Q 261.86 418.02 274.70 416.91   C 278.11 416.61 282.05 414.92 285.27 415.66   C 290.61 416.89 292.63 423.19 289.36 427.50   C 286.26 431.58 274.89 432.08 270.41 432.28   C 256.39 432.92 240.08 431.34 225.52 428.80   C 221.95 428.17 218.28 429.79 214.98 430.75   C 198.43 435.56 180.54 436.65 163.27 434.60   A 1.13 1.13 0.0 0 0 162.02 435.51   L 159.46 448.23   A 0.95 0.94 8.8 0 0 160.29 449.36   Q 210.84 454.87 262.25 454.45   Q 288.93 454.23 314.03 450.86"
       id="path1" />
    <path
       stroke="#232525"
       vector-effect="non-scaling-stroke"
       d="   M 314.03 450.86   Q 324.82 449.95 330.77 447.84   Q 348.79 441.44 357.98 425.93   Q 361.11 420.66 364.78 408.57   Q 376.84 368.93 388.79 329.36"
       id="path2" />
    <path
       stroke="#3f4344"
       vector-effect="non-scaling-stroke"
       d="   M 388.79 329.36   Q 390.29 322.38 396.01 321.93   C 399.72 321.64 402.96 323.88 403.89 327.41   Q 404.43 329.44 403.03 334.06   Q 395.26 359.55 387.33 386.32"
       id="path3" />
    <path
       stroke="#232525"
       vector-effect="non-scaling-stroke"
       d="   M 387.33 386.32   Q 386.73 387.27 386.33 389.72   Q 386.24 390.26 386.77 390.14   Q 402.15 386.73 415.52 379.96   C 440.98 367.08 455.45 346.17 461.16 318.80   C 465.02 300.30 465.21 280.29 463.68 261.59   Q 461.15 230.69 453.87 198.46   Q 446.15 164.28 435.75 132.75   Q 435.54 132.11 435.20 132.69   C 433.32 135.93 431.34 141.04 428.26 142.87   C 423.15 145.90 416.88 142.13 417.05 136.25   Q 417.11 133.94 418.91 130.92   Q 425.47 119.86 430.27 110.77   C 432.07 107.35 434.91 106.75 437.95 105.04   Q 449.64 98.47 462.31 91.54   C 471.85 86.33 468.74 78.31 469.30 69.54   Q 469.35 68.84 468.65 68.84   L 444.47 68.84"
       id="path4" />
    <path
       stroke="#3f4344"
       vector-effect="non-scaling-stroke"
       d="   M 444.47 68.84   Q 436.30 68.87 428.75 68.85   Q 426.24 68.84 424.81 67.95   Q 419.05 64.36 413.39 61.16"
       id="path5" />
    <path
       stroke="#232525"
       vector-effect="non-scaling-stroke"
       d="   M 413.39 61.16   C 411.43 59.75 407.25 56.76 404.85 57.61   Q 402.61 58.40 398.88 60.68"
       id="path6" />
    <path
       stroke="#3f4344"
       vector-effect="non-scaling-stroke"
       d="   M 398.88 60.68   Q 387.25 66.55 375.56 72.71   Q 365.70 77.92 361.16 82.01   Q 345.19 96.44 345.24 119.75   Q 345.33 158.35 345.37 196.50   Q 345.38 203.58 337.87 204.57"
       id="path7" />
    <path
       stroke="#3f4344"
       vector-effect="non-scaling-stroke"
       d="   M 466.02 350.64   Q 456.24 369.47 439.71 382.38   Q 439.31 382.69 439.81 382.69   L 477.80 382.74"
       id="path8" />
    <path
       stroke="#232525"
       vector-effect="non-scaling-stroke"
       d="   M 477.80 382.74   L 495.00 382.72   A 1.95 1.95 0.0 0 0 496.95 380.79   C 497.09 369.02 492.12 360.93 483.72 351.65   Q 477.31 344.57 472.01 338.18   Q 471.64 337.73 471.40 338.27   L 466.02 350.64"
       id="path9" />
    <path
       stroke="#616768"
       vector-effect="non-scaling-stroke"
       d="   M 477.80 382.74   Q 478.45 364.16 466.02 350.64"
       id="path10" />
    <path
       stroke="#616768"
       vector-effect="non-scaling-stroke"
       d="   M 413.39 61.16   Q 406.02 61.81 398.88 60.68"
       id="path11" />
    <path
       stroke="#616768"
       vector-effect="non-scaling-stroke"
       d="   M 444.47 68.84   Q 444.85 79.67 444.50 83.51   Q 443.97 89.23 439.23 94.20   C 436.55 97.02 432.70 98.52 429.43 100.69   Q 423.61 104.54 418.81 111.47   Q 418.32 112.18 418.20 112.98   C 418.05 113.98 417.01 114.64 416.61 115.56   Q 410.68 129.35 414.44 141.60   Q 425.53 177.81 432.23 211.82   C 437.67 239.49 440.75 266.92 439.66 294.66   Q 438.93 313.27 433.51 331.19   Q 422.28 368.37 387.33 386.32"
       id="path12" />
    <path
       stroke="#616768"
       vector-effect="non-scaling-stroke"
       d="   M 388.79 329.36   Q 386.11 330.14 383.55 330.97   Q 371.70 334.81 365.21 344.43   Q 362.26 348.79 360.23 355.36   Q 351.66 383.04 342.45 412.77   Q 339.16 423.41 335.72 429.27   Q 328.06 442.33 314.03 450.86"
       id="path13" />
    <path
       stroke="#3f4344"
       vector-effect="non-scaling-stroke"
       d="   M 118.33 400.78   C 117.33 399.15 116.74 397.30 115.63 395.93   Q 113.24 392.99 109.18 393.01   Q 94.15 393.09 79.60 393.05   Q 78.91 393.05 78.93 392.36   Q 79.14 383.73 78.94 374.27   Q 78.71 362.97 80.40 357.15   Q 82.80 348.87 88.66 342.13   Q 106.60 321.49 125.91 305.20   C 141.45 292.09 160.55 279.23 180.94 277.35   Q 191.55 276.38 201.64 276.45   Q 222.36 276.61 252.18 277.46   C 270.24 277.97 289.68 277.43 307.19 273.84   Q 318.52 271.52 325.63 267.08   Q 342.75 256.39 345.30 235.03   Q 346.42 225.71 337.88 224.54"
       id="path14" />
    <path
       stroke="#3f4344"
       vector-effect="non-scaling-stroke"
       d="   M 413.45 80.95   A 7.49 7.49 0.0 0 0 405.96 73.46   A 7.49 7.49 0.0 0 0 398.47 80.95   A 7.49 7.49 0.0 0 0 405.96 88.44   A 7.49 7.49 0.0 0 0 413.45 80.95"
       id="path15" />
    <path
       stroke="#3f4344"
       vector-effect="non-scaling-stroke"
       d="   M 416.6815 114.6222   A 7.32 7.32 0.0 0 0 416.3563 104.2752   L 416.1085 104.0425   A 7.32 7.32 0.0 0 0 405.7615 104.3677   L 380.3785 131.3978   A 7.32 7.32 0.0 0 0 380.7037 141.7448   L 380.9515 141.9775   A 7.32 7.32 0.0 0 0 391.2985 141.6523   L 416.6815 114.6222"
       id="path16" />
    <path
       stroke="#3f4344"
       vector-effect="non-scaling-stroke"
       d="   M 47.31 380.98   Q 31.86 384.06 19.16 393.40   Q 18.57 393.83 19.30 393.83   L 47.32 393.50"
       id="path17" />
    <path
       stroke="#232525"
       vector-effect="non-scaling-stroke"
       d="   M 47.32 393.50   L 63.56 393.32   A 0.38 0.38 0.0 0 0 63.94 392.94   L 63.95 379.51   Q 63.95 379.01 63.44 379.01   Q 55.42 379.12 47.31 380.98"
       id="path18" />
    <path
       stroke="#616768"
       vector-effect="non-scaling-stroke"
       d="   M 47.32 393.50   L 47.31 380.98"
       id="path19" />
    <path
       stroke="#232525"
       vector-effect="non-scaling-stroke"
       d="   M 85.20 448.82   Q 94.77 449.14 97.79 448.65   Q 105.24 447.44 107.22 438.79   Q 110.62 423.92 105.53 409.09   Q 105.34 408.54 104.76 408.54   L 87.33 408.51"
       id="path20" />
    <path
       stroke="#3f4344"
       vector-effect="non-scaling-stroke"
       d="   M 87.33 408.51   L 75.36 408.57   Q 74.85 408.57 74.53 408.97   L 43.32 448.51   A 0.20 0.20 0.0 0 0 43.48 448.83   L 85.20 448.82"
       id="path21" />
    <path
       stroke="#616768"
       vector-effect="non-scaling-stroke"
       d="   M 87.33 408.51   Q 91.47 420.99 89.47 436.24   Q 88.47 443.87 85.20 448.82"
       id="path22" />
  </g>
  <path
     fill="#000000"
     d="m 513.24423,379.08423 v 3.98 q -2.77,16.03 -19,16 -42.58,-0.09 -78.75,0.08 -1.92,0.01 -2.58,0.27 -13.84,5.47 -29.96,8.23 a 0.89,0.89 0 0 0 -0.71,0.62 c -2.28,7.17 -4.13,14.84 -7.4,21.52 q -11.1,22.6 -34.51,32.17 -7.36,3.02 -18.79,4.61 c -29.02,4.06 -58.82,4.86 -89.68,3.89 q -36.17,-1.15 -71.18,-4.83 c -10,-1.05 -16.56,-9.71 -14.54,-19.68 1.11,-5.48 1.76,-12.48 4.33,-17.02 3.64,-6.44 10.37,-8.74 17.54,-7.84 22.19,2.77 44.19,-1.73 64.35,-11.06 q 1.06,-0.49 -0.11,-0.5 -45.24,-0.1 -82.62,0.04 -4.25,0.02 -6.31,-1.22 -3.18,-1.92 -3.65,-6.35 0.54,-4.58 3.81,-6.43 1.9,-1.07 4.18,-1.07 54.29,-0.02 108.09,0.04 1.23,0 2.21,-0.74 5.34,-4 10.6,-9.01 28.89,-27.51 46.2,-63.95 c 2.07,-4.35 7.9,-5.58 11.55,-2.36 3.55,3.13 3.02,6.88 1.13,10.71 q -12.41,25.16 -29.93,46.6 a 0.22,0.22 0 0 0 0.17,0.36 q 7.91,0.01 15.23,-0.91 3.36,-0.42 5.52,0.47 c 5.19,2.13 6.1,8.85 1.95,12.49 q -1.87,1.65 -4.88,1.95 -16.54,1.65 -30.66,0.66 a 2.14,2.13 24 0 0 -1.65,0.63 q -14.82,15.07 -33.19,26.06 -0.55,0.33 0.09,0.39 13.01,1.38 25.85,0.27 c 3.41,-0.3 7.35,-1.99 10.57,-1.25 5.34,1.23 7.36,7.53 4.09,11.84 -3.1,4.08 -14.47,4.58 -18.95,4.78 -14.02,0.64 -30.33,-0.94 -44.89,-3.48 -3.57,-0.63 -7.24,0.99 -10.54,1.95 -16.55,4.81 -34.44,5.9 -51.71,3.85 a 1.13,1.13 0 0 0 -1.25,0.91 l -2.56,12.72 a 0.95,0.94 8.8 0 0 0.83,1.13 q 50.55,5.51 101.96,5.09 26.68,-0.22 51.78,-3.59 10.79,-0.91 16.74,-3.02 18.02,-6.4 27.21,-21.91 3.13,-5.27 6.8,-17.36 12.06,-39.64 24.01,-79.21 1.5,-6.98 7.22,-7.43 c 3.71,-0.29 6.95,1.95 7.88,5.48 q 0.54,2.03 -0.86,6.65 -7.77,25.49 -15.7,52.26 -0.6,0.95 -1,3.4 -0.09,0.54 0.44,0.42 15.38,-3.41 28.75,-10.18 c 25.46,-12.88 39.93,-33.79 45.64,-61.16 3.86,-18.5 4.05,-38.51 2.52,-57.21 q -2.53,-30.9 -9.81,-63.13 -7.72,-34.18 -18.12,-65.71 -0.21,-0.64 -0.55,-0.06 c -1.88,3.24 -3.86,8.35 -6.94,10.18 -5.11,3.03 -11.38,-0.74 -11.21,-6.62 q 0.06,-2.31 1.86,-5.33 6.56,-11.06 11.36,-20.15 c 1.8,-3.42 4.64,-4.02 7.68,-5.73 q 11.69,-6.570002 24.36,-13.500002 c 9.54,-5.21 6.43,-13.23 6.99,-22 q 0.05,-0.7 -0.65,-0.7 h -24.18 q -8.17,0.03 -15.72,0.01 -2.51,-0.01 -3.94,-0.9 -5.76,-3.59 -11.42,-6.79 c -1.96,-1.41 -6.14,-4.4 -8.54,-3.55 q -2.24,0.79 -5.97,3.07 -11.63,5.87 -23.32,12.03 -9.86,5.21 -14.4,9.3 -15.97,14.43 -15.92,37.740002 0.09,38.6 0.13,76.75 0.01,7.08 -7.5,8.07 -4.99,-0.63 -6.71,-4.32 -0.91,-1.95 -0.88,-4.56 0.43,-35.25 0.01,-69.11 -0.15,-11.91 0.83,-18.4 3.51,-23.350002 22.09,-39.190002 5.08,-4.33 14.88,-9.36 14.19,-7.29 27.97,-14.52 c 8.59,-4.5 15.67,-2.9 23.69,2.21 q 5.16,3.28 10.42,6.3 0.36,0.21 0.79,0.21 17.7,0.14 36.37,-0.06 c 6.99,-0.07 12.53,0.61 15.74,7.45 q 1.33,2.83 1.21,8.85 -0.11,5.14 -0.1,10.32 0.02,10.62 -6.24,17.83 -3.51,4.030002 -12.85,8.960002 -9.85,5.2 -18.36,10.2 -0.25,0.15 -0.16,0.43 c 14.07,41.39 25.08,83.46 30.37,125.75 3.24,25.87 4,51.43 -0.62,76.26 a 0.91,0.89 30.5 0 0 0.2,0.75 q 6.39,7.56 13.02,14.97 10.2,11.39 12.78,15.04 8.46,11.97 9.68,27.26 z m -45.98,-27.2 q -9.78,18.83 -26.31,31.74 -0.4,0.31 0.1,0.31 l 37.99,0.05 17.2,-0.02 a 1.95,1.95 0 0 0 1.95,-1.93 c 0.14,-11.77 -4.83,-19.86 -13.23,-29.14 q -6.41,-7.08 -11.71,-13.47 -0.37,-0.45 -0.61,0.09 z"
     id="path23"
     style="stroke-width:1;stroke-dasharray:none" />
  <path
     fill="#454949"
     d="   M 413.39 61.16   Q 406.02 61.81 398.88 60.68   Q 402.61 58.40 404.85 57.61   C 407.25 56.76 411.43 59.75 413.39 61.16   Z"
     id="path24" />
  <path
     fill="#7d8587"
     d="   M 398.88 60.68   Q 406.02 61.81 413.39 61.16   Q 419.05 64.36 424.81 67.95   Q 426.24 68.84 428.75 68.85   Q 436.30 68.87 444.47 68.84   Q 444.85 79.67 444.50 83.51   Q 443.97 89.23 439.23 94.20   C 436.55 97.02 432.70 98.52 429.43 100.69   Q 423.61 104.54 418.81 111.47   Q 418.32 112.18 418.20 112.98   C 418.05 113.98 417.01 114.64 416.61 115.56   Q 410.68 129.35 414.44 141.60   Q 425.53 177.81 432.23 211.82   C 437.67 239.49 440.75 266.92 439.66 294.66   Q 438.93 313.27 433.51 331.19   Q 422.28 368.37 387.33 386.32   Q 395.26 359.55 403.03 334.06   Q 404.43 329.44 403.89 327.41   C 402.96 323.88 399.72 321.64 396.01 321.93   Q 390.29 322.38 388.79 329.36   Q 386.11 330.14 383.55 330.97   Q 371.70 334.81 365.21 344.43   Q 362.26 348.79 360.23 355.36   Q 351.66 383.04 342.45 412.77   Q 339.16 423.41 335.72 429.27   Q 328.06 442.33 314.03 450.86   Q 288.93 454.23 262.25 454.45   Q 210.84 454.87 160.29 449.36   A 0.95 0.94 8.8 0 1 159.46 448.23   L 162.02 435.51   A 1.13 1.13 0.0 0 1 163.27 434.60   C 180.54 436.65 198.43 435.56 214.98 430.75   C 218.28 429.79 221.95 428.17 225.52 428.80   C 240.08 431.34 256.39 432.92 270.41 432.28   C 274.89 432.08 286.26 431.58 289.36 427.50   C 292.63 423.19 290.61 416.89 285.27 415.66   C 282.05 414.92 278.11 416.61 274.70 416.91   Q 261.86 418.02 248.85 416.64   Q 248.21 416.58 248.76 416.25   Q 267.13 405.26 281.95 390.19   A 2.14 2.13 24.0 0 1 283.60 389.56   Q 297.72 390.55 314.26 388.90   Q 317.27 388.60 319.14 386.95   C 323.29 383.31 322.38 376.59 317.19 374.46   Q 315.03 373.57 311.67 373.99   Q 304.35 374.91 296.44 374.90   A 0.22 0.22 0.0 0 1 296.27 374.54   Q 313.79 353.10 326.20 327.94   C 328.09 324.11 328.62 320.36 325.07 317.23   C 321.42 314.01 315.59 315.24 313.52 319.59   Q 296.21 356.03 267.32 383.54   Q 262.06 388.55 256.72 392.55   Q 255.74 393.29 254.51 393.29   Q 200.71 393.23 146.42 393.25   Q 144.14 393.25 142.24 394.32   Q 138.97 396.17 138.43 400.75   L 118.33 400.78   C 117.33 399.15 116.74 397.30 115.63 395.93   Q 113.24 392.99 109.18 393.01   Q 94.15 393.09 79.60 393.05   Q 78.91 393.05 78.93 392.36   Q 79.14 383.73 78.94 374.27   Q 78.71 362.97 80.40 357.15   Q 82.80 348.87 88.66 342.13   Q 106.60 321.49 125.91 305.20   C 141.45 292.09 160.55 279.23 180.94 277.35   Q 191.55 276.38 201.64 276.45   Q 222.36 276.61 252.18 277.46   C 270.24 277.97 289.68 277.43 307.19 273.84   Q 318.52 271.52 325.63 267.08   Q 342.75 256.39 345.30 235.03   Q 346.42 225.71 337.88 224.54   L 337.87 204.57   Q 345.38 203.58 345.37 196.50   Q 345.33 158.35 345.24 119.75   Q 345.19 96.44 361.16 82.01   Q 365.70 77.92 375.56 72.71   Q 387.25 66.55 398.88 60.68   Z   M 413.45 80.95   A 7.49 7.49 0.0 0 0 405.96 73.46   A 7.49 7.49 0.0 0 0 398.47 80.95   A 7.49 7.49 0.0 0 0 405.96 88.44   A 7.49 7.49 0.0 0 0 413.45 80.95   Z   M 416.6815 114.6222   A 7.32 7.32 0.0 0 0 416.3563 104.2752   L 416.1085 104.0425   A 7.32 7.32 0.0 0 0 405.7615 104.3677   L 380.3785 131.3978   A 7.32 7.32 0.0 0 0 380.7037 141.7448   L 380.9515 141.9775   A 7.32 7.32 0.0 0 0 391.2985 141.6523   L 416.6815 114.6222   Z"
     id="path25"
     style="marker-mid:url(#ArrowWide);fill:#e6e6e6" />
  <path
     fill="#454949"
     d="   M 444.47 68.84   L 468.65 68.84   Q 469.35 68.84 469.30 69.54   C 468.74 78.31 471.85 86.33 462.31 91.54   Q 449.64 98.47 437.95 105.04   C 434.91 106.75 432.07 107.35 430.27 110.77   Q 425.47 119.86 418.91 130.92   Q 417.11 133.94 417.05 136.25   C 416.88 142.13 423.15 145.90 428.26 142.87   C 431.34 141.04 433.32 135.93 435.20 132.69   Q 435.54 132.11 435.75 132.75   Q 446.15 164.28 453.87 198.46   Q 461.15 230.69 463.68 261.59   C 465.21 280.29 465.02 300.30 461.16 318.80   C 455.45 346.17 440.98 367.08 415.52 379.96   Q 402.15 386.73 386.77 390.14   Q 386.24 390.26 386.33 389.72   Q 386.73 387.27 387.33 386.32   Q 422.28 368.37 433.51 331.19   Q 438.93 313.27 439.66 294.66   C 440.75 266.92 437.67 239.49 432.23 211.82   Q 425.53 177.81 414.44 141.60   Q 410.68 129.35 416.61 115.56   C 417.01 114.64 418.05 113.98 418.20 112.98   Q 418.32 112.18 418.81 111.47   Q 423.61 104.54 429.43 100.69   C 432.70 98.52 436.55 97.02 439.23 94.20   Q 443.97 89.23 444.50 83.51   Q 444.85 79.67 444.47 68.84   Z"
     id="path26"
     style="fill:#999999" />
  <circle
     fill="#000000"
     cx="405.96"
     cy="80.95"
     r="7.49"
     id="circle26" />
  <rect
     fill="#000000"
     x="-7.49"
     y="-25.86"
     transform="translate(398.53,123.01) rotate(43.2)"
     width="14.98"
     height="51.72"
     rx="7.32"
     id="rect26" />
  <path
     fill="#000000"
     d="m 337.88,224.54 c 5.69333,0.78 8.16667,4.27667 7.42,10.49 -1.7,14.24 -8.25667,24.92333 -19.67,32.05 -4.74,2.96 -10.88667,5.21333 -18.44,6.76 -17.51,3.59 -36.95,4.13 -55.01,3.62 -19.88,-0.56667 -36.72667,-0.90333 -50.54,-1.01 -6.72667,-0.0467 -13.62667,0.25333 -20.7,0.9 -20.39,1.88 -39.49,14.74 -55.03,27.85 -12.87333,10.86 -25.29,23.17 -37.25,36.93 -3.906667,4.49333 -6.66,9.5 -8.26,15.02 -1.126667,3.88 -1.613333,9.58667 -1.46,17.12 0.133333,6.30667 0.13,12.33667 -0.01,18.09 -0.01333,0.46 0.21,0.69 0.67,0.69 9.7,0.0267 19.56,0.0133 29.58,-0.04 2.70667,-0.0133 4.85667,0.96 6.45,2.92 1.11,1.37 1.7,3.22 2.7,4.85 4.63333,11.3 6.19333,22.93667 4.68,34.91 -0.90667,7.2 -2.60333,12.57333 -5.09,16.12 -3.73333,5.32 -8.47333,8.91 -14.22,10.77 -3.05333,0.98 -7.966667,1.43667 -14.74,1.37 -16.273333,-0.15333 -32.523333,-0.17 -48.75,-0.05 -4.426667,0.0333 -7.97,-1.29 -10.63,-3.97 -4.75,-4.79 -4.79,-12.09 -0.66,-17.34 8.86,-11.26667 17.746667,-22.53 26.66,-33.79 0.166667,-0.22 0.113333,-0.32667 -0.16,-0.32 -11.12,0.0733 -23.806667,0.25667 -38.06,0.55 -4.22,0.0867 -7.4266667,-0.33 -9.62,-1.25 C 3.6733333,406.06667 1.0933333,402.62 0,397.44 v -1.49 c 0.55,-6.05 3.69,-9.5 8.76,-13.43 15.9,-12.29 35.02,-18.07 54.85,-18.58 0.290023,-0.0135 0.525047,-0.23572 0.55,-0.52 1.013333,-11.52 5.076667,-21.48333 12.19,-29.89 l 42.92,-42.27 32.94,-21.29 c 7.93492,-5.12855 27.32,-7.55 27.32,-7.55 6.6,-0.65333 13.23333,-0.98333 19.9,-0.99 23.7,-0.03 51.37,1.76 77.59,0.83 7.54,-0.26 15.09,-1.01333 22.65,-2.26 8.91333,-1.46667 15.33667,-3.60333 19.27,-6.41 7.02,-5.02 10.78667,-11.84667 11.3,-20.48 0.29,-4.92 2.48,-7.97 7.64,-8.57 z M 47.31,380.98 c -10.3,2.05333 -19.683333,6.19333 -28.15,12.42 -0.393333,0.28667 -0.346667,0.43 0.14,0.43 l 28.02,-0.33 16.24,-0.18 c 0.209868,0 0.38,-0.17013 0.38,-0.38 l 0.01,-13.43 c 0,-0.33333 -0.17,-0.5 -0.51,-0.5 -5.346667,0.0733 -10.723333,0.73 -16.13,1.97 z m 37.89,67.84 c 6.38,0.21333 10.576667,0.15667 12.59,-0.17 4.96667,-0.80667 8.11,-4.09333 9.43,-9.86 2.26667,-9.91333 1.70333,-19.81333 -1.69,-29.7 -0.12667,-0.36667 -0.38333,-0.55 -0.77,-0.55 l -17.43,-0.03 -11.97,0.06 c -0.34,0 -0.616667,0.13333 -0.83,0.4 l -31.21,39.54 c -0.09889,0.13185 -0.0048,0.32 0.16,0.32 z"
     id="path27"
     sodipodi:nodetypes="ccccccccccccccccccccccccccccccccccsccccccccccccccccccccccccccc"
     style="stroke-width:1;stroke-dasharray:none" />
  <path
     fill="#454949"
     d="   M 388.79 329.36   Q 376.84 368.93 364.78 408.57   Q 361.11 420.66 357.98 425.93   Q 348.79 441.44 330.77 447.84   Q 324.82 449.95 314.03 450.86   Q 328.06 442.33 335.72 429.27   Q 339.16 423.41 342.45 412.77   Q 351.66 383.04 360.23 355.36   Q 362.26 348.79 365.21 344.43   Q 371.70 334.81 383.55 330.97   Q 386.11 330.14 388.79 329.36   Z"
     id="path28"
     style="fill:#999999" />
  <path
     fill="#454949"
     d="   M 477.80 382.74   Q 478.45 364.16 466.02 350.64   L 471.40 338.27   Q 471.64 337.73 472.01 338.18   Q 477.31 344.57 483.72 351.65   C 492.12 360.93 497.09 369.02 496.95 380.79   A 1.95 1.95 0.0 0 1 495.00 382.72   L 477.80 382.74   Z"
     id="path29"
     style="fill:#999999" />
  <path
     fill="#7d8587"
     d="   M 466.02 350.64   Q 478.45 364.16 477.80 382.74   L 439.81 382.69   Q 439.31 382.69 439.71 382.38   Q 456.24 369.47 466.02 350.64   Z"
     id="path30"
     style="fill:#e6e6e6" />
  <path
     fill="#454949"
     d="   M 47.32 393.50   L 47.31 380.98   Q 55.42 379.12 63.44 379.01   Q 63.95 379.01 63.95 379.51   L 63.94 392.94   A 0.38 0.38 0.0 0 1 63.56 393.32   L 47.32 393.50   Z"
     id="path31"
     style="fill:#999999" />
  <path
     fill="#7d8587"
     d="   M 47.31 380.98   L 47.32 393.50   L 19.30 393.83   Q 18.57 393.83 19.16 393.40   Q 31.86 384.06 47.31 380.98   Z"
     id="path32"
     style="fill:#e6e6e6" />
  <path
     fill="#7d8587"
     d="   M 87.33 408.51   Q 91.47 420.99 89.47 436.24   Q 88.47 443.87 85.20 448.82   L 43.48 448.83   A 0.20 0.20 0.0 0 1 43.32 448.51   L 74.53 408.97   Q 74.85 408.57 75.36 408.57   L 87.33 408.51   Z"
     id="path33"
     style="fill:#e6e6e6" />
  <path
     fill="#454949"
     d="   M 87.33 408.51   L 104.76 408.54   Q 105.34 408.54 105.53 409.09   Q 110.62 423.92 107.22 438.79   Q 105.24 447.44 97.79 448.65   Q 94.77 449.14 85.20 448.82   Q 88.47 443.87 89.47 436.24   Q 91.47 420.99 87.33 408.51   Z"
     id="path34"
     style="fill:#999999" />
</svg>
