<?xml version="1.0" encoding="UTF-8" standalone="no"?>
<!DOCTYPE svg PUBLIC "-//W3C//DTD SVG 1.1//EN" "http://www.w3.org/Graphics/SVG/1.1/DTD/svg11.dtd">
<svg xmlns="http://www.w3.org/2000/svg" version="1.1" viewBox="0.00 0.00 512.00 512.00" width="512.00" height="512.00">
<path fill="#464646" d="
  M 68.56 248.11
  C 70.88 203.72 88.76 160.87 118.75 128.77
  Q 167.56 76.53 239.56 68.26
  C 252.80 66.74 262.57 80.64 256.74 92.55
  Q 255.52 95.06 250.30 100.38
  Q 230.90 120.19 221.19 146.44
  Q 207.83 182.57 216.94 219.87
  C 231.17 278.15 281.48 320.28 341.10 323.97
  Q 377.63 326.23 410.61 311.17
  C 415.16 309.09 419.96 305.80 424.97 305.38
  C 435.42 304.49 444.16 312.74 443.53 323.23
  Q 443.24 328.06 439.37 335.64
  Q 412.55 388.07 363.27 416.96
  Q 325.19 439.28 281.47 442.92
  C 263.08 444.44 243.95 444.07 225.71 440.65
  C 140.57 424.69 76.68 355.17 68.94 268.39
  Q 68.03 258.19 68.56 248.11
  Z"
/>
</svg>
